<svg width="26.000000" height="26.000000" viewBox="0 0 26 26" fill="none" xmlns="http://www.w3.org/2000/svg" xmlns:xlink="http://www.w3.org/1999/xlink">
	<desc>
			Created with Pixso.
	</desc>
	<defs>
		<clipPath id="clip7_75">
			<rect id="bxl-github.svg" rx="0.000000" width="25.000000" height="25.000000" transform="translate(0.500000 0.500000)" fill="white" fill-opacity="0"/>
		</clipPath>
	</defs>
	<rect id="bxl-github.svg" rx="0.000000" width="25.000000" height="25.000000" transform="translate(0.500000 0.500000)" fill="#FFFFFF" fill-opacity="0"/>
	<g clip-path="url(#clip7_75)">
		<path id="Vector" d="M13.02 2.16C7.06 2.16 2.22 7 2.22 12.97C2.22 17.74 5.31 21.79 9.61 23.22C10.15 23.32 10.34 22.99 10.34 22.7C10.34 22.44 10.33 21.76 10.33 20.86C7.32 21.51 6.69 19.41 6.69 19.41C6.2 18.16 5.49 17.83 5.49 17.83C4.51 17.16 5.57 17.18 5.57 17.18C6.65 17.25 7.22 18.29 7.22 18.29C8.18 19.94 9.75 19.46 10.36 19.19C10.46 18.49 10.74 18.01 11.05 17.74C8.65 17.47 6.13 16.54 6.13 12.4C6.13 11.22 6.55 10.26 7.24 9.5C7.13 9.23 6.76 8.13 7.35 6.64C7.35 6.64 8.25 6.35 10.32 7.75C11.2 7.51 12.11 7.39 13.02 7.39C13.94 7.39 14.84 7.51 15.73 7.75C17.79 6.35 18.7 6.64 18.7 6.64C19.29 8.13 18.92 9.23 18.8 9.5C19.5 10.26 19.91 11.22 19.91 12.4C19.91 16.55 17.39 17.47 14.98 17.73C15.37 18.07 15.71 18.73 15.71 19.73C15.71 21.18 15.7 22.35 15.7 22.7C15.7 22.99 15.89 23.32 16.44 23.22C20.74 21.79 23.83 17.74 23.83 12.97C23.83 7 18.99 2.16 13.02 2.16Z" fill="#D3E97A" fill-opacity="1.000000" fill-rule="evenodd"/>
	</g>
</svg>
