<svg width="26.000000" height="26.000000" viewBox="0 0 26 26" fill="none" xmlns="http://www.w3.org/2000/svg" xmlns:xlink="http://www.w3.org/1999/xlink">
	<desc>
			Created with Pixso.
	</desc>
	<defs>
		<clipPath id="clip7_71">
			<rect id="bxl-linkedin.svg" rx="0.000000" width="25.000000" height="25.000000" transform="translate(0.500000 0.500000)" fill="white" fill-opacity="0"/>
		</clipPath>
	</defs>
	<rect id="bxl-linkedin.svg" rx="0.000000" width="25.000000" height="25.000000" transform="translate(0.500000 0.500000)" fill="#FFFFFF" fill-opacity="0"/>
	<g clip-path="url(#clip7_71)">
		<path id="Vector" d="M7.76 5.42C7.76 6.73 6.7 7.79 5.39 7.79C4.08 7.79 3.02 6.73 3.02 5.42C3.02 4.11 4.08 3.05 5.39 3.05C6.7 3.05 7.76 4.11 7.76 5.42Z" fill="#D3E97A" fill-opacity="1.000000" fill-rule="evenodd"/>
		<path id="Vector" d="M10 9.59L10 22.74L14.08 22.74L14.08 16.24C14.08 14.52 14.41 12.86 16.54 12.86C18.63 12.86 18.66 14.82 18.66 16.34L18.66 22.74L22.75 22.74L22.75 15.53C22.75 11.99 21.98 9.26 17.84 9.26C15.85 9.26 14.52 10.35 13.98 11.39L13.92 11.39L13.92 9.59L10 9.59ZM3.35 9.59L7.44 9.59L7.44 22.74L3.35 22.74L3.35 9.59Z" fill="#D3E97A" fill-opacity="1.000000" fill-rule="nonzero"/>
	</g>
</svg>
